0
SECTION
2
HEADER
9
$INSUNITS
70
4
9
$ACADVER
1
AC1014
9
$HANDSEED
5
FFFF
0
ENDSEC
0
SECTION
2
TABLES
0
TABLE
2
VPORT
5
8
100
AcDbSymbolTable
0
ENDTAB
0
TABLE
2
LTYPE
5
5
100
AcDbSymbolTable
0
LTYPE
5
14
100
AcDbSymbolTableRecord
100
AcDbLinetypeTableRecord
2
BYBLOCK
70
0
0
LTYPE
5
15
100
AcDbSymbolTableRecord
100
AcDbLinetypeTableRecord
2
BYLAYER
70
0
0
ENDTAB
0
TABLE
2
LAYER
5
2
100
AcDbSymbolTable
70
2
0
LAYER
5
50
100
AcDbSymbolTableRecord
100
AcDbLayerTableRecord
2
0
70
0
6
CONTINUOUS
0
ENDTAB
0
TABLE
2
STYLE
5
3
100
AcDbSymbolTable
70
1
0
STYLE
5
11
100
AcDbSymbolTableRecord
100
AcDbTextStyleTableRecord
2
STANDARD
70
0
0
ENDTAB
0
TABLE
2
VIEW
5
6
100
AcDbSymbolTable
70
0
0
ENDTAB
0
TABLE
2
UCS
5
7
100
AcDbSymbolTable
70
0
0
ENDTAB
0
TABLE
2
APPID
5
9
100
AcDbSymbolTable
70
2
0
APPID
5
12
100
AcDbSymbolTableRecord
100
AcDbRegAppTableRecord
2
ACAD
70
0
0
ENDTAB
0
TABLE
2
DIMSTYLE
5
A
100
AcDbSymbolTable
70
1
0
ENDTAB
0
TABLE
2
BLOCK_RECORD
5
1
100
AcDbSymbolTable
70
1
0
BLOCK_RECORD
5
1F
100
AcDbSymbolTableRecord
100
AcDbBlockTableRecord
2
*MODEL_SPACE
0
BLOCK_RECORD
5
1B
100
AcDbSymbolTableRecord
100
AcDbBlockTableRecord
2
*PAPER_SPACE
0
ENDTAB
0
ENDSEC
0
SECTION
2
BLOCKS
0
BLOCK
5
20
100
AcDbEntity
100
AcDbBlockBegin
2
*MODEL_SPACE
0
ENDBLK
5
21
100
AcDbEntity
100
AcDbBlockEnd
0
BLOCK
5
1C
100
AcDbEntity
100
AcDbBlockBegin
2
*PAPER_SPACE
0
ENDBLK
5
1D
100
AcDbEntity
100
AcDbBlockEnd
0
ENDSEC
0
SECTION
2
ENTITIES
0
LWPOLYLINE
5
100
100
AcDbEntity
8
0
100
AcDbPolyline
90
8
70
1
43
0.0
10
3.9999999999999991
20
0
10
196
20
-9.4368957093138306e-15
42
0.41421356237309681
10
200
20
3.9999999999999996
10
200
20
106
42
0.41421356237310025
10
196
20
110
10
3.9999999999999862
20
110
42
0.41421356237309126
10
0
20
106
10
0
20
4.0000000000000036
42
0.41421356237309537
0
CIRCLE
5
101
100
AcDbEntity
8
0
100
AcDbCircle
10
4.9497474683058336
20
105.05025253169416
30
0
40
1.5000000000000067
210
0
220
0
230
1
0
CIRCLE
5
102
100
AcDbEntity
8
0
100
AcDbCircle
10
4.9497474683058336
20
4.9497474683058336
30
0
40
1.5000000000000002
210
0
220
0
230
1
0
CIRCLE
5
103
100
AcDbEntity
8
0
100
AcDbCircle
10
195.05025253169418
20
4.9497474683058256
30
0
40
1.4999999999999969
210
0
220
0
230
1
0
CIRCLE
5
104
100
AcDbEntity
8
0
100
AcDbCircle
10
195.05025551192642
20
105.05025417082189
30
0
40
1.4999999999999845
210
0
220
0
230
1
0
LWPOLYLINE
5
105
100
AcDbEntity
8
0
100
AcDbPolyline
90
4
70
1
43
0.0
10
156.9496001801144
20
28.850122061922619
10
156.9496001801144
20
42.850122061922626
10
170.94960018011443
20
42.850122061922626
10
170.94960018011443
20
28.850122061922619
0
LWPOLYLINE
5
106
100
AcDbEntity
8
0
100
AcDbPolyline
90
4
70
1
43
0.0
10
189.99960018011444
20
28.850122061922619
10
175.99960018011444
20
28.850122061922619
10
175.99960018011441
20
42.850122061922626
10
189.99960018011444
20
42.850122061922626
0
LWPOLYLINE
5
107
100
AcDbEntity
8
0
100
AcDbPolyline
90
4
70
1
43
0.0
10
175.99960018011441
20
9.8001220619226181
10
175.99960018011441
20
23.800122061922622
10
189.99960018011444
20
23.800122061922622
10
189.99960018011444
20
9.8001220619226181
0
LWPOLYLINE
5
108
100
AcDbEntity
8
0
100
AcDbPolyline
90
4
70
1
43
0.0
10
170.94960018011443
20
9.8001220619226181
10
156.9496001801144
20
9.8001220619226181
10
156.9496001801144
20
23.800122061922622
10
170.94960018011443
20
23.800122061922622
0
LWPOLYLINE
5
109
100
AcDbEntity
8
0
100
AcDbPolyline
90
4
70
1
43
0.0
10
145.10000000000002
20
23.999999999999972
10
145.10000000000002
20
9.9999999999999662
10
131.09999999999999
20
9.9999999999999734
10
131.10000000000002
20
23.999999999999979
0
LWPOLYLINE
5
110
100
AcDbEntity
8
0
100
AcDbPolyline
90
4
70
1
43
0.0
10
145.10000000000002
20
29.049999999999976
10
131.10000000000002
20
29.049999999999979
10
131.10000000000002
20
43.04999999999999
10
145.09999999999999
20
43.04999999999999
0
LWPOLYLINE
5
111
100
AcDbEntity
8
0
100
AcDbPolyline
90
4
70
1
43
0.0
10
156.9496001801144
20
86.000122061922639
10
156.9496001801144
20
100.00012206192264
10
170.94960018011443
20
100.00012206192264
10
170.94960018011443
20
86.000122061922639
0
LWPOLYLINE
5
112
100
AcDbEntity
8
0
100
AcDbPolyline
90
4
70
1
43
0.0
10
156.9496001801144
20
80.950122061922627
10
170.94960018011443
20
80.950122061922627
10
170.94960018011443
20
66.950122061922627
10
156.9496001801144
20
66.950122061922627
0
LWPOLYLINE
5
113
100
AcDbEntity
8
0
100
AcDbPolyline
90
4
70
1
43
0.0
10
175.99960018011441
20
66.950122061922627
10
175.99960018011441
20
80.950122061922627
10
189.99960018011444
20
80.950122061922627
10
189.99960018011444
20
66.950122061922613
0
LWPOLYLINE
5
114
100
AcDbEntity
8
0
100
AcDbPolyline
90
4
70
1
43
0.0
10
189.99960018011444
20
47.900122061922623
10
175.99960018011444
20
47.900122061922623
10
175.99960018011441
20
61.900122061922637
10
189.99960018011444
20
61.900122061922637
0
LWPOLYLINE
5
115
100
AcDbEntity
8
0
100
AcDbPolyline
90
4
70
1
43
0.0
10
189.99960018011444
20
86.000122061922639
10
175.99960018011444
20
86.000122061922639
10
175.99960018011441
20
100.00012206192264
10
189.99960018011444
20
100.00012206192264
0
LWPOLYLINE
5
116
100
AcDbEntity
8
0
100
AcDbPolyline
90
4
70
1
43
0.0
10
156.9496001801144
20
61.900122061922637
10
170.94960018011443
20
61.900122061922637
10
170.94960018011443
20
47.900122061922623
10
156.9496001801144
20
47.900122061922623
0
LWPOLYLINE
5
117
100
AcDbEntity
8
0
100
AcDbPolyline
90
4
70
1
43
0.0
10
126.05000000000001
20
29.049999999999979
10
112.05
20
29.049999999999983
10
112.05
20
43.04999999999999
10
126.05000000000001
20
43.04999999999999
0
LWPOLYLINE
5
118
100
AcDbEntity
8
0
100
AcDbPolyline
90
4
70
1
43
0.0
10
92.999999999999986
20
29.04999999999999
10
92.999999999999986
20
43.049999999999997
10
107.00000000000003
20
43.049999999999997
10
107.00000000000001
20
29.049999999999983
0
LWPOLYLINE
5
119
100
AcDbEntity
8
0
100
AcDbPolyline
90
4
70
1
43
0.0
10
92.999999999999986
20
9.9999999999999822
10
92.999999999999986
20
23.999999999999986
10
107.00000000000001
20
23.999999999999982
10
107
20
9.9999999999999822
0
LWPOLYLINE
5
120
100
AcDbEntity
8
0
100
AcDbPolyline
90
4
70
1
43
0.0
10
112.04999999999998
20
9.9999999999999822
10
112.04999999999998
20
23.999999999999986
10
126.05000000000001
20
23.999999999999979
10
126.04999999999998
20
9.9999999999999734
0
LWPOLYLINE
5
121
100
AcDbEntity
8
0
100
AcDbPolyline
90
4
70
1
43
0.0
10
73.949999999999974
20
9.9999999999999911
10
73.949999999999974
20
23.999999999999993
10
87.949999999999989
20
23.999999999999986
10
87.949999999999989
20
9.9999999999999822
0
LWPOLYLINE
5
122
100
AcDbEntity
8
0
100
AcDbPolyline
90
4
70
1
43
0.0
10
73.949999999999974
20
29.049999999999994
10
73.949999999999974
20
43.049999999999997
10
87.950000000000003
20
43.049999999999997
10
87.949999999999989
20
29.04999999999999
0
LWPOLYLINE
5
123
100
AcDbEntity
8
0
100
AcDbPolyline
90
4
70
1
43
0.0
10
54.899999999999977
20
29.049999999999997
10
54.899999999999977
20
43.050000000000004
10
68.899999999999991
20
43.050000000000004
10
68.899999999999977
20
29.049999999999994
0
LWPOLYLINE
5
124
100
AcDbEntity
8
0
100
AcDbPolyline
90
4
70
1
43
0.0
10
68.899999999999977
20
9.9999999999999911
10
54.899999999999977
20
9.9999999999999947
10
54.899999999999977
20
23.999999999999993
10
68.899999999999977
20
23.999999999999989
0
LWPOLYLINE
5
125
100
AcDbEntity
8
0
100
AcDbPolyline
90
4
70
1
43
0.0
10
43.049691266385153
20
9.800305292253686
10
29.049691266385153
20
9.800305292253686
10
29.049691266385153
20
23.80030529225369
10
43.049691266385153
20
23.80030529225369
0
LWPOLYLINE
5
126
100
AcDbEntity
8
0
100
AcDbPolyline
90
4
70
1
43
0.0
10
23.999691266385152
20
9.800305292253686
10
9.9996912663851489
20
9.800305292253686
10
9.9996912663851489
20
23.80030529225369
10
23.999691266385152
20
23.80030529225369
0
LWPOLYLINE
5
127
100
AcDbEntity
8
0
100
AcDbPolyline
90
4
70
1
43
0.0
10
9.9996912663851489
20
42.850305292253694
10
23.999691266385152
20
42.850305292253694
10
23.999691266385152
20
28.850305292253687
10
9.9996912663851489
20
28.850305292253687
0
LWPOLYLINE
5
128
100
AcDbEntity
8
0
100
AcDbPolyline
90
4
70
1
43
0.0
10
29.049691266385153
20
42.850305292253694
10
43.049691266385153
20
42.850305292253694
10
43.049691266385153
20
28.850305292253687
10
29.049691266385153
20
28.850305292253687
0
LWPOLYLINE
5
129
100
AcDbEntity
8
0
100
AcDbPolyline
90
4
70
1
43
0.0
10
29.049691266385153
20
61.900305292253705
10
43.049691266385153
20
61.900305292253705
10
43.049691266385153
20
47.900305292253691
10
29.049691266385153
20
47.900305292253691
0
LWPOLYLINE
5
130
100
AcDbEntity
8
0
100
AcDbPolyline
90
4
70
1
43
0.0
10
9.9996912663851489
20
61.900305292253705
10
23.999691266385152
20
61.900305292253705
10
23.999691266385152
20
47.900305292253691
10
9.9996912663851489
20
47.900305292253691
0
LWPOLYLINE
5
131
100
AcDbEntity
8
0
100
AcDbPolyline
90
4
70
1
43
0.0
10
9.9996912663851489
20
80.950305292253688
10
23.999691266385152
20
80.950305292253688
10
23.999691266385152
20
66.950305292253688
10
9.9996912663851489
20
66.950305292253688
0
LWPOLYLINE
5
132
100
AcDbEntity
8
0
100
AcDbPolyline
90
4
70
1
43
0.0
10
29.049691266385153
20
80.950305292253688
10
43.049691266385153
20
80.950305292253688
10
43.049691266385153
20
66.950305292253688
10
29.049691266385153
20
66.950305292253688
0
LWPOLYLINE
5
133
100
AcDbEntity
8
0
100
AcDbPolyline
90
4
70
1
43
0.0
10
29.049691266385153
20
100.0003052922537
10
43.049691266385153
20
100.0003052922537
10
43.049691266385153
20
86.000305292253714
10
29.049691266385153
20
86.000305292253714
0
LWPOLYLINE
5
134
100
AcDbEntity
8
0
100
AcDbPolyline
90
4
70
1
43
0.0
10
9.9996912663851489
20
100.0003052922537
10
23.999691266385152
20
100.0003052922537
10
23.999691266385152
20
86.000305292253714
10
9.9996912663851489
20
86.000305292253714
0
LWPOLYLINE
5
135
100
AcDbEntity
8
0
100
AcDbPolyline
90
4
70
1
43
0.0
10
142.5
20
48
10
57.500000000000014
20
48
10
57.500000000000007
20
103
10
142.5
20
103
0
ENDSEC
0
SECTION
2
OBJECTS
0
DICTIONARY
5
C
100
AcDbDictionary
3
ACAD_GROUP
350
D
3
ACAD_MLINESTYLE
350
17
0
DICTIONARY
5
D
100
AcDbDictionary
0
DICTIONARY
5
1A
330
C
100
AcDbDictionary
0
DICTIONARY
5
17
100
AcDbDictionary
0
ENDSEC
0
EOF
