0
SECTION
2
HEADER
9
$INSUNITS
70
4
9
$ACADVER
1
AC1014
9
$HANDSEED
5
FFFF
0
ENDSEC
0
SECTION
2
TABLES
0
TABLE
2
VPORT
5
8
100
AcDbSymbolTable
0
ENDTAB
0
TABLE
2
LTYPE
5
5
100
AcDbSymbolTable
0
LTYPE
5
14
100
AcDbSymbolTableRecord
100
AcDbLinetypeTableRecord
2
BYBLOCK
70
0
0
LTYPE
5
15
100
AcDbSymbolTableRecord
100
AcDbLinetypeTableRecord
2
BYLAYER
70
0
0
ENDTAB
0
TABLE
2
LAYER
5
2
100
AcDbSymbolTable
70
2
0
LAYER
5
50
100
AcDbSymbolTableRecord
100
AcDbLayerTableRecord
2
0
70
0
6
CONTINUOUS
0
ENDTAB
0
TABLE
2
STYLE
5
3
100
AcDbSymbolTable
70
1
0
STYLE
5
11
100
AcDbSymbolTableRecord
100
AcDbTextStyleTableRecord
2
STANDARD
70
0
0
ENDTAB
0
TABLE
2
VIEW
5
6
100
AcDbSymbolTable
70
0
0
ENDTAB
0
TABLE
2
UCS
5
7
100
AcDbSymbolTable
70
0
0
ENDTAB
0
TABLE
2
APPID
5
9
100
AcDbSymbolTable
70
2
0
APPID
5
12
100
AcDbSymbolTableRecord
100
AcDbRegAppTableRecord
2
ACAD
70
0
0
ENDTAB
0
TABLE
2
DIMSTYLE
5
A
100
AcDbSymbolTable
70
1
0
ENDTAB
0
TABLE
2
BLOCK_RECORD
5
1
100
AcDbSymbolTable
70
1
0
BLOCK_RECORD
5
1F
100
AcDbSymbolTableRecord
100
AcDbBlockTableRecord
2
*MODEL_SPACE
0
BLOCK_RECORD
5
1B
100
AcDbSymbolTableRecord
100
AcDbBlockTableRecord
2
*PAPER_SPACE
0
ENDTAB
0
ENDSEC
0
SECTION
2
BLOCKS
0
BLOCK
5
20
100
AcDbEntity
100
AcDbBlockBegin
2
*MODEL_SPACE
0
ENDBLK
5
21
100
AcDbEntity
100
AcDbBlockEnd
0
BLOCK
5
1C
100
AcDbEntity
100
AcDbBlockBegin
2
*PAPER_SPACE
0
ENDBLK
5
1D
100
AcDbEntity
100
AcDbBlockEnd
0
ENDSEC
0
SECTION
2
ENTITIES
0
LWPOLYLINE
5
100
100
AcDbEntity
8
0
100
AcDbPolyline
90
8
70
1
43
0.0
10
3.9999999999999991
20
0
10
196
20
-9.4368957093138306e-15
42
0.41421356237309681
10
200
20
3.9999999999999996
10
200
20
106
42
0.41421356237310025
10
196
20
110
10
3.9999999999999862
20
110
42
0.41421356237309126
10
0
20
106
10
0
20
4.0000000000000036
42
0.41421356237309537
0
CIRCLE
5
101
100
AcDbEntity
8
0
100
AcDbCircle
10
4.9497474683058336
20
105.05025253169416
30
0
40
1.5000000000000067
210
0
220
0
230
1
0
CIRCLE
5
102
100
AcDbEntity
8
0
100
AcDbCircle
10
4.9497474683058336
20
4.9497474683058336
30
0
40
1.5000000000000002
210
0
220
0
230
1
0
CIRCLE
5
103
100
AcDbEntity
8
0
100
AcDbCircle
10
195.05025253169418
20
4.9497474683058256
30
0
40
1.4999999999999969
210
0
220
0
230
1
0
CIRCLE
5
104
100
AcDbEntity
8
0
100
AcDbCircle
10
195.05025551192642
20
105.05025417082189
30
0
40
1.4999999999999845
210
0
220
0
230
1
0
LWPOLYLINE
5
105
100
AcDbEntity
8
0
100
AcDbPolyline
90
8
70
1
43
0.0
10
190.10050506338837
20
9.8994949366116565
10
9.8994949366116813
20
9.8994949366116565
10
9.8994949366116671
20
100.10050506338834
10
57.5
20
100.10050506338834
10
57.5
20
103.0000015348196
10
142.5
20
103.0000015348196
10
142.5
20
100.10050506338834
10
190.10050506338837
20
100.10050506338834
0
LWPOLYLINE
5
106
100
AcDbEntity
8
0
100
AcDbPolyline
90
8
70
1
43
0.0
10
30.356154919947187
20
22.155497477381772
10
58.810979862387214
20
22.155497477381772
42
0.41421356237308116
10
61.810979862387221
20
25.155497477381779
10
61.810979862387185
20
50.741799802955335
42
0.26794919243113607
10
60.310979862387157
20
53.339876014308629
10
31.856154919947173
20
69.768276854570004
42
0.57735026918962318
10
27.356154919947176
20
67.170200643216674
10
27.35615491994718
20
25.155497477381779
42
0.41421356237308116
0
LWPOLYLINE
5
107
100
AcDbEntity
8
0
100
AcDbPolyline
90
14
70
1
43
0.0
10
21.760414791130209
20
89.973850610524153
42
0.41421356237309159
10
18.763443803651398
20
86.976879623045306
10
18.763443803651398
20
17.97385061052421
42
0.41421356237309337
10
21.763443803651406
20
14.973850610524204
10
139.91721429598257
20
14.973850610524204
42
0.41421356237309848
10
142.98005015655758
20
18.036686471099131
10
142.98005015655758
20
36.487302641983248
42
0.76732698797895771
10
138.63060438006033
20
37.652733125318647
10
131.54972078084822
20
25.388282969002105
42
-0.41421356237309503
10
127.3473153474593
20
24.26225182685738
10
31.440664951171623
20
79.633982250229394
42
-0.26794919243111975
10
29.942179457432196
20
82.229435259790975
10
29.942179457432125
20
86.97687962304542
42
0.41421356237309503
10
26.945208469953243
20
89.973850610524238
0
LWPOLYLINE
5
108
100
AcDbEntity
8
0
100
AcDbPolyline
90
5
70
1
43
0.0
10
96.591824203305663
20
20.158370721086676
10
71.591824203305663
20
20.158370721086676
10
46.591824203305663
20
20.158370721086676
10
46.591824203305663
20
17.158370721086669
10
96.591824203305663
20
17.158370721086669
0
LWPOLYLINE
5
109
100
AcDbEntity
8
0
100
AcDbPolyline
90
6
70
1
43
0.0
10
69.819560968271546
20
25.155497477381779
42
0.41421356237308815
10
72.81956096827156
20
22.155497477381772
10
102.71089600037999
20
22.155497477381807
42
0.77390170545225612
10
104.16782479391586
20
27.777969305746389
10
74.276489761807483
20
44.384266545806675
42
0.57186321568074761
10
69.819560968271546
20
41.761794717442029
0
LWPOLYLINE
5
110
100
AcDbEntity
8
0
100
AcDbPolyline
90
4
70
1
43
0.0
10
94.74245929791671
20
40.185307591763404
10
93.242459297916582
20
37.587231380410032
10
49.941189108694708
20
62.587231380410138
10
51.441189108694729
20
65.185307591763475
0
LWPOLYLINE
5
111
100
AcDbEntity
8
0
100
AcDbPolyline
90
14
70
1
43
0.0
10
58.171367454279306
20
71.63013014064758
42
0.76732698797895804
10
62.520813230776554
20
70.464699657312181
10
69.601696829988668
20
82.729149813628737
42
-0.41421356237309503
10
73.804102263377587
20
83.855180955773463
10
169.71075265966527
20
28.483450532401434
42
-0.26794919243111975
10
171.20923815340467
20
25.887997522839854
10
171.20923815340475
20
21.140553159585409
42
0.41421356237309503
10
174.20620914088363
20
18.143582172106598
10
179.39100281970667
20
18.143582172106669
42
0.41421356237309243
10
182.38797380718549
20
21.140553159585522
10
182.38797380718549
20
90.143582172106633
42
0.41421356237309503
10
179.38797380718546
20
93.143582172106619
10
61.234203314854305
20
93.143582172106647
42
0.41421356237309848
10
58.171367454279306
20
90.080746311531712
0
LWPOLYLINE
5
112
100
AcDbEntity
8
0
100
AcDbPolyline
90
6
70
1
43
0.0
10
98.440521610456884
20
85.961935305249028
42
0.77390170545225656
10
96.983592816921004
20
80.339463476884418
10
126.8749278490294
20
63.733166236824161
42
0.57186321568074849
10
131.33185664256533
20
66.355638065188813
10
131.33185664256533
20
82.961935305249057
42
0.41421356237308815
10
128.33185664256533
20
85.961935305249071
0
LWPOLYLINE
5
113
100
AcDbEntity
8
0
100
AcDbPolyline
90
4
70
1
43
0.0
10
106.40895831292016
20
67.932125190867424
10
107.9089583129203
20
70.530201402220797
10
151.21022850214217
20
45.530201402220698
10
149.71022850214214
20
42.93212519086736
0
LWPOLYLINE
5
114
100
AcDbEntity
8
0
100
AcDbPolyline
90
8
70
1
43
0.0
10
140.84043774844972
20
54.777556768322199
10
169.2952626908897
20
38.349155928060824
42
0.57735026918962284
10
173.7952626908897
20
40.947232139414169
10
173.7952626908897
20
82.961935305249057
42
0.41421356237308116
10
170.7952626908897
20
85.961935305249071
10
142.34043774844966
20
85.961935305249071
42
0.41421356237308116
10
139.34043774844966
20
82.961935305249057
10
139.34043774844969
20
57.375632979675501
42
0.26794919243113574
0
LWPOLYLINE
5
115
100
AcDbEntity
8
0
100
AcDbPolyline
90
5
70
1
43
0.0
10
154.55959340753122
20
90.959062061544174
10
104.55959340753122
20
90.959062061544174
10
104.55959340753122
20
87.959062061544159
10
129.55959340753122
20
87.959062061544159
10
154.55959340753122
20
87.959062061544159
0
ENDSEC
0
SECTION
2
OBJECTS
0
DICTIONARY
5
C
100
AcDbDictionary
3
ACAD_GROUP
350
D
3
ACAD_MLINESTYLE
350
17
0
DICTIONARY
5
D
100
AcDbDictionary
0
DICTIONARY
5
1A
330
C
100
AcDbDictionary
0
DICTIONARY
5
17
100
AcDbDictionary
0
ENDSEC
0
EOF
