0
SECTION
2
HEADER
9
$INSUNITS
70
4
9
$ACADVER
1
AC1014
9
$HANDSEED
5
FFFF
0
ENDSEC
0
SECTION
2
TABLES
0
TABLE
2
VPORT
5
8
100
AcDbSymbolTable
0
ENDTAB
0
TABLE
2
LTYPE
5
5
100
AcDbSymbolTable
0
LTYPE
5
14
100
AcDbSymbolTableRecord
100
AcDbLinetypeTableRecord
2
BYBLOCK
70
0
0
LTYPE
5
15
100
AcDbSymbolTableRecord
100
AcDbLinetypeTableRecord
2
BYLAYER
70
0
0
ENDTAB
0
TABLE
2
LAYER
5
2
100
AcDbSymbolTable
70
2
0
LAYER
5
50
100
AcDbSymbolTableRecord
100
AcDbLayerTableRecord
2
0
70
0
6
CONTINUOUS
0
ENDTAB
0
TABLE
2
STYLE
5
3
100
AcDbSymbolTable
70
1
0
STYLE
5
11
100
AcDbSymbolTableRecord
100
AcDbTextStyleTableRecord
2
STANDARD
70
0
0
ENDTAB
0
TABLE
2
VIEW
5
6
100
AcDbSymbolTable
70
0
0
ENDTAB
0
TABLE
2
UCS
5
7
100
AcDbSymbolTable
70
0
0
ENDTAB
0
TABLE
2
APPID
5
9
100
AcDbSymbolTable
70
2
0
APPID
5
12
100
AcDbSymbolTableRecord
100
AcDbRegAppTableRecord
2
ACAD
70
0
0
ENDTAB
0
TABLE
2
DIMSTYLE
5
A
100
AcDbSymbolTable
70
1
0
ENDTAB
0
TABLE
2
BLOCK_RECORD
5
1
100
AcDbSymbolTable
70
1
0
BLOCK_RECORD
5
1F
100
AcDbSymbolTableRecord
100
AcDbBlockTableRecord
2
*MODEL_SPACE
0
BLOCK_RECORD
5
1B
100
AcDbSymbolTableRecord
100
AcDbBlockTableRecord
2
*PAPER_SPACE
0
ENDTAB
0
ENDSEC
0
SECTION
2
BLOCKS
0
BLOCK
5
20
100
AcDbEntity
100
AcDbBlockBegin
2
*MODEL_SPACE
0
ENDBLK
5
21
100
AcDbEntity
100
AcDbBlockEnd
0
BLOCK
5
1C
100
AcDbEntity
100
AcDbBlockBegin
2
*PAPER_SPACE
0
ENDBLK
5
1D
100
AcDbEntity
100
AcDbBlockEnd
0
ENDSEC
0
SECTION
2
ENTITIES
0
LWPOLYLINE
5
100
100
AcDbEntity
8
0
100
AcDbPolyline
90
8
70
1
43
0.0
10
3.9999999999999991
20
0
10
196
20
-9.4368957093138306e-15
42
0.41421356237309681
10
200
20
3.9999999999999996
10
200
20
106
42
0.41421356237310025
10
196
20
110
10
3.9999999999999862
20
110
42
0.41421356237309126
10
0
20
106
10
0
20
4.0000000000000036
42
0.41421356237309537
0
CIRCLE
5
101
100
AcDbEntity
8
0
100
AcDbCircle
10
4.9497474683058336
20
105.05025253169416
30
0
40
1.5000000000000067
210
0
220
0
230
1
0
CIRCLE
5
102
100
AcDbEntity
8
0
100
AcDbCircle
10
4.9497474683058336
20
4.9497474683058336
30
0
40
1.5000000000000002
210
0
220
0
230
1
0
CIRCLE
5
103
100
AcDbEntity
8
0
100
AcDbCircle
10
195.05025253169418
20
4.9497474683058256
30
0
40
1.4999999999999969
210
0
220
0
230
1
0
CIRCLE
5
104
100
AcDbEntity
8
0
100
AcDbCircle
10
195.05025551192642
20
105.05025417082189
30
0
40
1.4999999999999845
210
0
220
0
230
1
0
LWPOLYLINE
5
105
100
AcDbEntity
8
0
100
AcDbPolyline
90
8
70
1
43
0.0
10
190.10050506338837
20
9.8994949366116565
10
9.8994949366116813
20
9.8994949366116565
10
9.8994949366116671
20
100.10050506338834
10
57.5
20
100.10050506338834
10
57.5
20
103.0000015348196
10
142.5
20
103.0000015348196
10
142.5
20
100.10050506338834
10
190.10050506338837
20
100.10050506338834
0
LWPOLYLINE
5
106
100
AcDbEntity
8
0
100
AcDbPolyline
90
12
70
1
43
0.0
10
12.262605386583516
20
30.193087156214553
10
12.262605386583516
20
80.19308715621456
10
17.262605386583516
20
80.19308715621456
10
17.262605386583516
20
90.19308715621456
10
182.26260538658352
20
90.19308715621456
10
182.26260538658352
20
80.19308715621456
10
187.26260538658352
20
80.19308715621456
10
187.26260538658352
20
30.19308715621456
10
182.26260538658352
20
30.193087156214553
10
182.26260538658352
20
20.193087156214553
10
17.262605386583516
20
20.193087156214553
10
17.262605386583516
20
30.193087156214553
0
LWPOLYLINE
5
107
100
AcDbEntity
8
0
100
AcDbPolyline
90
6
70
1
43
0.0
10
77.140845902297883
20
35.321998834025507
10
37.38348658941716
20
75.079358146906287
42
0.66817863791930465
10
32.262166245857493
20
72.958037803346613
10
32.262166245857514
20
33.200678490465869
42
0.41421356237308815
10
35.262166245857514
20
30.200678490465862
10
75.019525558738252
20
30.200678490465897
42
0.66817863791929888
0
LWPOLYLINE
5
108
100
AcDbEntity
8
0
100
AcDbPolyline
90
6
70
1
43
0.0
10
87.262166245857529
20
38.018553172823772
10
87.262166245857529
20
77.200678490465847
42
0.41421356237308815
10
84.262166245857514
20
80.200678490465862
10
48.998253459979622
20
80.200678490465862
42
0.64932826919404363
10
46.768371021238124
20
75.193784295598491
10
82.032283807116002
20
36.011658977956415
42
0.68736311329699873
0
LWPOLYLINE
5
109
100
AcDbEntity
8
0
100
AcDbPolyline
90
6
70
1
43
0.0
10
150.02017929306299
20
80.192882093921185
10
110.26281998018227
20
80.192882093921185
42
0.41421356237308116
10
107.26281998018226
20
77.19288209392117
10
107.26281998018226
20
37.435522781040468
42
0.66817863791929966
10
112.38414032374193
20
35.314202437480816
10
152.14149963662263
20
75.071561750361539
42
0.66817863791929888
0
LWPOLYLINE
5
110
100
AcDbEntity
8
0
100
AcDbPolyline
90
6
70
1
43
0.0
10
167.26281998018223
20
72.950241406801894
10
167.26281998018226
20
33.192882093921192
42
-0.41421356237308116
10
164.26281998018226
20
30.192882093921185
10
124.50546066730155
20
30.192882093921192
42
-0.66817863791929888
10
122.38414032374192
20
35.31420243748083
10
162.14149963662263
20
75.071561750361511
42
-0.66817863791930043
0
ENDSEC
0
SECTION
2
OBJECTS
0
DICTIONARY
5
C
100
AcDbDictionary
3
ACAD_GROUP
350
D
3
ACAD_MLINESTYLE
350
17
0
DICTIONARY
5
D
100
AcDbDictionary
0
DICTIONARY
5
1A
330
C
100
AcDbDictionary
0
DICTIONARY
5
17
100
AcDbDictionary
0
ENDSEC
0
EOF
